<?xml version="1.0" encoding="utf-8"?>
<!-- Generator: Adobe Illustrator 21.1.0, SVG Export Plug-In . SVG Version: 6.00 Build 0)  -->
<svg version="1.1" id="Layer_1" xmlns="http://www.w3.org/2000/svg" xmlns:xlink="http://www.w3.org/1999/xlink" x="0px" y="0px"
	 viewBox="0 0 680 680" style="enable-background:new 0 0 680 680;" xml:space="preserve">
<style type="text/css">
	.st0{fill:#DBE0E5;}
	.st1{fill:#008E24;}
	.st2{fill:#59AE12;}
	.st3{fill:#D5D300;}
	.st4{fill:#FFEF00;}
	.st5{fill:#FDBB00;}
	.st6{fill:#ED6900;}
	.st7{fill:#E60008;}
	.st8{fill:#FFFFFF;}
</style>
<path class="st0" d="M670,10v660H10V10H670 M680,0H0v680h680V0L680,0z"/>
<polygon class="st1" points="169,90 99,90 29,90 29,60 29,30 99,30 169,30 199,60 "/>
<polygon points="650,650 580,650 510,650 480,620 510,590 580,590 650,590 650,620 "/>
<polygon class="st1" points="209,170 119,170 29,170 29,140 29,110 119,110 209,110 239,140 "/>
<polygon class="st2" points="249,250 139,250 29,250 29,220 29,190 139,190 249,190 279,220 "/>
<polygon class="st3" points="289,330 159,330 29,330 29,300 29,270 159,270 289,270 319,300 "/>
<polygon class="st4" points="329,410 179,410 29,410 29,380 29,350 179,350 329,350 359,380 "/>
<polygon class="st5" points="369,490 199,490 29,490 29,460 29,430 199,430 369,430 399,460 "/>
<polygon class="st6" points="409,570 219,570 29,570 29,540 29,510 219,510 409,510 439,540 "/>
<polygon class="st7" points="449,650 239,650 29,650 29,620 29,590 239,590 449,590 479,620 "/>
<path class="st8" d="M99.6,75l-1.5-5.6h-9.7L86.9,75H78l9.8-30.1h10.8l9.9,30.1H99.6z M96.5,62.7l-1.3-4.9c-0.3-1.1-0.7-2.5-1.1-4.2
	s-0.7-3-0.9-3.7c-0.1,0.7-0.4,1.8-0.7,3.4s-1.2,4.8-2.4,9.5H96.5z"/>
<path class="st8" d="M120.1,62.9h-7.6v-5.5h7.6v-7.5h5.5v7.5h7.6v5.5h-7.6v7.4h-5.5V62.9z"/>
<path class="st8" d="M99.6,155l-1.5-5.6h-9.7l-1.5,5.6H78l9.8-30.1h10.8l9.9,30.1H99.6z M96.5,142.7l-1.3-4.9
	c-0.3-1.1-0.7-2.5-1.1-4.2s-0.7-3-0.9-3.7c-0.1,0.7-0.4,1.8-0.7,3.4s-1.2,4.8-2.4,9.5H96.5z"/>
<path class="st8" d="M81.2,205h10.5c4.1,0,7.1,0.6,9.1,1.8s3,3.1,3,5.6c0,1.7-0.4,3.1-1.3,4.3s-2,2-3.4,2.3v0.2
	c1.9,0.5,3.2,1.3,4,2.5s1.3,2.6,1.3,4.5c0,2.7-1,4.9-3.1,6.4s-4.8,2.3-8.4,2.3H81.2V205z M89.3,216.5h2.4c1.2,0,2.1-0.2,2.7-0.7
	s1-1.2,1-2.1c0-1.7-1.3-2.5-3.8-2.5h-2.3V216.5z M89.3,222.4v6.3h2.9c2.5,0,3.8-1.1,3.8-3.2c0-1-0.3-1.8-1-2.3s-1.7-0.8-2.9-0.8
	H89.3z"/>
<path class="st8" d="M94.6,291.2c-1.9,0-3.4,0.8-4.5,2.4s-1.6,3.8-1.6,6.5c0,5.8,2.2,8.7,6.6,8.7c1.3,0,2.6-0.2,3.9-0.6
	s2.5-0.8,3.8-1.3v6.8c-2.5,1.1-5.3,1.7-8.5,1.7c-4.5,0-8-1.3-10.4-3.9s-3.6-6.4-3.6-11.4c0-3.1,0.6-5.8,1.8-8.2s2.9-4.2,5-5.4
	s4.8-1.9,7.7-1.9c3.2,0,6.3,0.7,9.3,2.1l-2.5,6.4c-1.1-0.5-2.2-1-3.3-1.3S95.9,291.2,94.6,291.2z"/>
<path class="st8" d="M106.7,379.4c0,5-1.4,8.9-4.1,11.6s-6.6,4.1-11.6,4.1h-9.7v-30h10.4c4.8,0,8.5,1.2,11.1,3.7
	S106.7,374.7,106.7,379.4z M98.3,379.7c0-2.7-0.5-4.8-1.6-6.1s-2.7-2-5-2h-2.4v16.8h1.8c2.5,0,4.3-0.7,5.4-2.1
	C97.7,384.8,98.3,382.6,98.3,379.7z"/>
<path class="st8" d="M99,475H81.2v-30H99v6.5h-9.7v4.7h9v6.5h-9v5.7H99V475z"/>
<path class="st8" d="M89.2,555h-8v-30H99v6.5h-9.7v5.7h9v6.5h-9V555z"/>
<path class="st8" d="M93.3,617.4h12.9v16.2c-3.5,1.2-7.4,1.8-11.6,1.8c-4.6,0-8.2-1.3-10.7-4s-3.8-6.5-3.8-11.5
	c0-4.8,1.4-8.6,4.1-11.3s6.6-4,11.6-4c1.9,0,3.7,0.2,5.3,0.5s3.1,0.8,4.4,1.4l-2.6,6.4c-2.2-1.1-4.5-1.6-7.1-1.6
	c-2.4,0-4.2,0.8-5.5,2.3c-1.3,1.5-1.9,3.7-1.9,6.6c0,2.8,0.6,4.9,1.8,6.4s2.9,2.2,5.1,2.2c1.2,0,2.3-0.1,3.3-0.3v-4.7h-5.4V617.4z"
	/>
<path class="st8" d="M577.3,617.4h12.9v16.2c-3.5,1.2-7.4,1.8-11.6,1.8c-4.6,0-8.2-1.3-10.7-4c-2.5-2.7-3.8-6.5-3.8-11.5
	c0-4.8,1.4-8.6,4.1-11.3s6.6-4,11.6-4c1.9,0,3.7,0.2,5.3,0.5c1.7,0.4,3.1,0.8,4.4,1.4l-2.6,6.4c-2.2-1.1-4.5-1.6-7.1-1.6
	c-2.4,0-4.2,0.8-5.5,2.3c-1.3,1.5-1.9,3.7-1.9,6.6c0,2.8,0.6,4.9,1.8,6.4c1.2,1.5,2.9,2.2,5.1,2.2c1.2,0,2.3-0.1,3.3-0.3v-4.7h-5.4
	V617.4z"/>
</svg>
